<svg width="130" height="38" viewBox="0 0 130 38" fill="none" xmlns="http://www.w3.org/2000/svg">
<g clip-path="url(#clip0_1387_4035)">
<path d="M97.5756 14.1436H94.507V22.952C94.507 23.142 94.5221 23.3168 94.5524 23.4688C94.6053 23.7348 94.7111 23.9552 94.8547 24.1224C95.089 24.3884 95.4745 24.5252 96.0035 24.5252H97.5681V27.4816C97.3111 27.5652 97.0088 27.6488 96.6762 27.7248C96.3361 27.8008 95.9733 27.8616 95.5878 27.9224C95.2024 27.9756 94.8547 27.9984 94.5372 27.9984C94.2349 27.9984 93.9553 27.9832 93.6832 27.9528C93.0029 27.8768 92.421 27.6944 91.9448 27.4208C91.5291 27.1776 91.1814 26.8736 90.9093 26.524C90.7506 26.3188 90.6146 26.0984 90.5088 25.8552C90.2064 25.2016 90.0628 24.4796 90.0628 23.6892V15.1696L94.507 10.7084H97.5756V14.1436ZM103.086 10.45C103.97 10.0016 104.983 9.6976 106.109 9.538C104.068 3.9672 98.7471 0 92.4965 0C86.246 0 81.0006 3.914 78.9297 9.424C80.2221 9.4924 81.3559 9.7128 82.3082 10.0776C83.5326 10.5488 84.5 11.2708 85.1727 12.2208C85.8529 13.1784 86.2006 14.3716 86.2006 15.7776V23.4688C86.2006 23.5372 86.2006 23.5752 86.2082 23.598C86.2535 23.6284 86.2913 23.636 86.3291 23.636H88.3396V28.12L87.8105 28.386C87.5309 28.5228 87.1605 28.652 86.6314 28.7888C86.1024 28.9256 85.475 29.0016 84.757 29.0016C84.4925 29.0016 84.2355 28.9864 83.9861 28.956C87.9768 34.2684 92.489 38.0684 92.489 38.0684C92.489 38.0684 97.9082 33.5084 102.118 27.3904C101.143 26.6988 100.372 25.7716 99.8204 24.6316C99.1175 23.1952 98.7622 21.3712 98.7622 19.2204C98.7622 17.0696 99.1175 15.2152 99.8204 13.7864C100.554 12.3044 101.649 11.1796 103.078 10.4576" fill="white"/>
<path d="M9.58372 14.2263V10.7911H6.51512V5.97266H3.06105L2.22965 10.7911H0V14.2263H2.07849V23.7719C2.07849 24.5623 2.22965 25.2919 2.52442 25.9379C2.81919 26.5915 3.30291 27.1083 3.96046 27.4959C4.61802 27.8835 5.47965 28.0735 6.54535 28.0735C6.86279 28.0735 7.21802 28.0431 7.59593 27.9975C7.9814 27.9443 8.33663 27.8759 8.6843 27.7999C9.02442 27.7239 9.32674 27.6479 9.58372 27.5567V24.6003H8.01919C7.48256 24.6003 7.10465 24.4635 6.87035 24.1975C6.63605 23.9315 6.52267 23.5363 6.52267 23.0271V14.2187H9.59128L9.58372 14.2263Z" fill="white"/>
<path d="M21.9945 10.4812C21.6997 10.4128 21.3672 10.3672 21.0044 10.3672C20.3241 10.3672 19.727 10.504 19.2131 10.7852C18.6991 11.0664 18.2759 11.4388 17.9358 11.8948C17.5957 12.3584 17.316 12.86 17.1044 13.4224H16.8852L16.5375 10.7852H12.8643V27.6876H17.3084V19.2364C17.3084 18.484 17.384 17.838 17.5503 17.2756C17.709 16.7208 17.9584 16.2496 18.2986 15.862C18.6387 15.4744 19.0619 15.1932 19.5608 15.0108C20.0596 14.8284 20.6416 14.7372 21.2991 14.7372H22.6747V10.6864C22.5236 10.6256 22.3044 10.5572 22.002 10.4736" fill="white"/>
<path d="M29.5145 10.7852H25.0703V27.6876H29.5145V10.7852Z" fill="white"/>
<path d="M44.7665 19.6233C44.7665 20.6721 44.6456 21.5537 44.4113 22.2757C44.1769 22.9977 43.799 23.5297 43.2775 23.8869C42.756 24.2365 42.0456 24.4189 41.1537 24.4189C40.5113 24.4189 39.9746 24.3049 39.5287 24.0845C39.0828 23.8565 38.7124 23.5297 38.4252 23.1041C38.138 22.6785 37.9188 22.1541 37.7677 21.5461C37.6165 20.9381 37.5409 20.2541 37.5409 19.5093V18.9621C37.5409 17.9361 37.6694 17.0545 37.9264 16.3249C38.1833 15.5953 38.5764 15.0405 39.1054 14.6529C39.6421 14.2653 40.3223 14.0753 41.1537 14.0753C42.0456 14.0753 42.756 14.2501 43.2775 14.6073C43.799 14.9569 44.1769 15.4965 44.4113 16.2109C44.6456 16.9253 44.7665 17.8221 44.7665 18.8937V19.6309V19.6233ZM48.4851 14.2273C47.9409 12.9201 47.1624 11.9625 46.1572 11.3393C45.1444 10.7161 43.9351 10.4121 42.5293 10.4121C41.4409 10.4121 40.4508 10.6249 39.5589 11.0505C38.6671 11.4837 37.9415 12.1525 37.3822 13.0797H37.1554L36.77 10.7997H33.127V33.4249H37.5711V25.8401H37.7601C38.1002 26.3341 38.5159 26.7521 39.0072 27.0941C39.4985 27.4361 40.0502 27.6869 40.67 27.8465C41.2897 28.0061 41.9549 28.0897 42.6804 28.0897C43.9956 28.0897 45.1595 27.7781 46.1496 27.1473C47.1397 26.5165 47.9107 25.5437 48.4624 24.2365C49.0142 22.9293 49.2938 21.2801 49.2938 19.2889C49.2938 17.2977 49.0217 15.5497 48.4775 14.2425" fill="white"/>
<path d="M62.9445 23.0957C62.6876 23.6125 62.3172 24.0001 61.8411 24.2509C61.3573 24.5093 60.7602 24.6385 60.0347 24.6385C59.1428 24.6385 58.4172 24.4561 57.8579 24.0761C57.3062 23.7037 56.898 23.1413 56.6259 22.3889C56.3614 21.6365 56.2254 20.7169 56.2254 19.6225V18.8853C56.2254 17.7757 56.3538 16.8409 56.6108 16.0885C56.8678 15.3361 57.2608 14.7737 57.7899 14.3861C58.319 13.9985 59.0143 13.8085 59.8684 13.8085C60.594 13.8085 61.1986 13.9377 61.6748 14.1961C62.1509 14.4545 62.5137 14.8269 62.748 15.3209C62.9823 15.8149 63.0957 16.4457 63.0957 17.2209H67.5399C67.5399 16.0657 67.3661 15.0625 67.0108 14.2189C66.6631 13.3753 66.1416 12.6609 65.4614 12.0833C64.7812 11.5057 63.9724 11.0801 63.0504 10.7989C62.1207 10.5253 61.0852 10.3809 59.9364 10.3809C58.1678 10.3809 56.6713 10.7001 55.4469 11.3461C54.2224 11.9921 53.2928 12.9573 52.6655 14.2569C52.0381 15.5565 51.7207 17.2209 51.7207 19.2501C51.7207 21.2793 52.0381 22.8981 52.6655 24.2129C53.2928 25.5353 54.2149 26.5081 55.4317 27.1389C56.6486 27.7697 58.1451 28.0813 59.9364 28.0813C61.0852 28.0813 62.1283 27.9293 63.0655 27.6329C64.0027 27.3365 64.8038 26.8957 65.4765 26.3181C66.1492 25.7405 66.6556 25.0261 67.0108 24.1673C67.3585 23.3085 67.5399 22.3357 67.5399 21.2413H63.3224C63.3224 21.9709 63.194 22.5941 62.937 23.1033" fill="white"/>
<path d="M80.6147 21.1053C80.6147 21.6221 80.524 22.1009 80.3426 22.5493C80.2972 22.6633 80.2519 22.7697 80.1914 22.8761C80.0327 23.1877 79.8286 23.4613 79.5943 23.6893C79.2769 24.0009 78.8838 24.2441 78.4152 24.4265C77.9466 24.6089 77.41 24.7001 76.8205 24.7001C76.3065 24.7001 75.8757 24.6241 75.5129 24.4721C75.1501 24.3201 74.8705 24.1073 74.6815 23.8261C74.485 23.5449 74.3943 23.2181 74.3943 22.8305C74.3943 22.1465 74.6664 21.6069 75.2106 21.2269C75.7548 20.8393 76.4955 20.5657 77.4327 20.4061C77.9391 20.3225 78.4908 20.2541 79.0728 20.2161C79.5641 20.1857 80.0856 20.1629 80.6222 20.1629V21.0901L80.6147 21.1053ZM86.1472 24.6089C85.8676 24.6089 85.6181 24.5177 85.3914 24.3353C85.1647 24.1529 85.0513 23.8717 85.0513 23.4841V15.8081C85.0513 14.6073 84.7716 13.6117 84.2048 12.8213C83.6379 12.0309 82.8292 11.4305 81.7786 11.0201C81.2949 10.8301 80.7507 10.6857 80.1612 10.5869C79.6699 10.5033 79.1484 10.4501 78.5891 10.4273C78.3548 10.4197 78.1129 10.4121 77.8635 10.4121C76.4123 10.4121 75.1426 10.6021 74.0617 10.9897C72.9734 11.3773 72.1344 11.9245 71.5373 12.6465C70.9402 13.3609 70.6455 14.2121 70.6455 15.2001V15.5725C70.6455 15.6637 70.653 15.7701 70.6757 15.8765H74.9914V15.4889C74.9914 15.1697 75.0821 14.8733 75.2635 14.6073C75.4449 14.3413 75.7548 14.1209 76.1931 13.9461C76.6315 13.7789 77.1984 13.6877 77.9013 13.6877C77.9391 13.6877 77.9844 13.6877 78.0222 13.6877C78.6647 13.7029 79.1786 13.8093 79.549 14.0069C79.5565 14.0069 79.5641 14.0145 79.5792 14.0221C79.9571 14.2349 80.2292 14.5161 80.3803 14.8733C80.5391 15.2381 80.6222 15.6637 80.6222 16.1577V17.4117C80.3577 17.4117 80.1007 17.4117 79.8437 17.4193C79.3147 17.4269 78.8007 17.4497 78.3019 17.4801C77.5838 17.5257 76.9036 17.5865 76.246 17.6701C74.9234 17.8449 73.7896 18.1489 72.8449 18.5897C71.9001 19.0305 71.167 19.6309 70.6606 20.4061C70.1466 21.1737 69.8896 22.1541 69.8896 23.3321C69.8896 24.3201 70.0635 25.1257 70.4187 25.7565C70.7664 26.3873 71.2199 26.8737 71.7792 27.2005C72.3309 27.5349 72.9205 27.7629 73.5553 27.8921C74.1827 28.0213 74.7722 28.0821 75.3315 28.0821C76.2234 28.0821 77.017 27.9833 77.7123 27.7933C78.4077 27.6033 79.0123 27.3297 79.5338 26.9877C80.0554 26.6457 80.5013 26.2505 80.8641 25.7945H81.0833C81.2117 26.2657 81.4385 26.6685 81.7559 27.0029C82.0734 27.3373 82.474 27.5957 82.9577 27.7705C83.4414 27.9529 83.9856 28.0441 84.6054 28.0441C84.8019 28.0441 84.9984 28.0441 85.1798 28.0289C85.1873 28.0289 85.1949 28.0289 85.2024 28.0289C85.3914 28.0137 85.5728 27.9985 85.7391 27.9681C85.9205 27.9377 86.0792 27.9073 86.2379 27.8693C86.6838 27.7477 87.0164 27.6413 87.228 27.5349V24.6089H86.1774H86.1472Z" fill="white"/>
<path d="M104.242 17.4039C104.348 16.5679 104.544 15.8763 104.831 15.3367C105.119 14.7895 105.534 14.3791 106.079 14.1131C106.343 13.9763 106.645 13.8851 106.97 13.8167C107.31 13.7483 107.688 13.7103 108.104 13.7103C108.595 13.7103 109.034 13.7787 109.434 13.9155C109.827 14.0523 110.16 14.2727 110.44 14.5767C110.719 14.8731 110.938 15.2607 111.097 15.7319C111.256 16.2031 111.339 16.7579 111.339 17.4039H104.242ZM115.904 19.0759C115.904 17.0619 115.609 15.4203 115.012 14.1435C114.415 12.8667 113.531 11.9243 112.359 11.3163C111.188 10.7083 109.752 10.4043 108.044 10.4043C107.469 10.4043 106.925 10.4347 106.411 10.4955C105.292 10.6323 104.31 10.9135 103.456 11.3467C103.169 11.4911 102.897 11.6583 102.64 11.8407C102.587 11.8787 102.534 11.9167 102.481 11.9547C102.443 11.9851 102.398 12.0231 102.36 12.0535C102.315 12.0839 102.269 12.1295 102.224 12.1675C101.574 12.7223 101.045 13.4139 100.637 14.2423C99.9942 15.5419 99.6768 17.2063 99.6768 19.2355C99.6768 20.7479 99.8582 22.0627 100.221 23.1799C100.342 23.5447 100.478 23.8943 100.637 24.2135C101.279 25.5207 102.224 26.4935 103.479 27.1243C104.733 27.7551 106.29 28.0667 108.142 28.0667C109.291 28.0667 110.341 27.9375 111.286 27.6639C112.231 27.3979 113.047 27.0027 113.727 26.4783C114.408 25.9539 114.944 25.2927 115.322 24.5023C115.708 23.7119 115.897 22.7771 115.897 21.7055H111.551C111.551 22.1995 111.467 22.6403 111.294 23.0279C111.127 23.4079 110.893 23.7347 110.591 23.9931C110.296 24.2515 109.933 24.4415 109.517 24.5707C109.102 24.6999 108.641 24.7607 108.127 24.7607C107.19 24.7607 106.441 24.5935 105.874 24.2667C105.376 23.9703 104.998 23.5447 104.733 22.9747C104.695 22.8987 104.665 22.8151 104.627 22.7391C104.363 22.0551 104.212 21.2191 104.166 20.2311H115.889V19.0759H115.904Z" fill="white"/>
<path d="M128.307 10.4812C128.004 10.4128 127.679 10.3672 127.317 10.3672C126.636 10.3672 126.039 10.504 125.525 10.7852C125.019 11.0664 124.588 11.4388 124.248 11.8948C123.908 12.3584 123.628 12.86 123.417 13.4224H123.197L122.842 10.7852H119.169V27.6876H123.606V19.2364C123.606 18.484 123.689 17.838 123.847 17.2756C124.006 16.7208 124.256 16.2496 124.596 15.862C124.936 15.4744 125.359 15.1932 125.858 15.0108C126.357 14.8284 126.939 14.7372 127.596 14.7372H128.972V10.6864C128.821 10.6256 128.602 10.5572 128.299 10.4736" fill="white"/>
<path d="M29.5145 4.46094H25.0703V8.31414H29.5145V4.46094Z" fill="#F26B52"/>
<path d="M94.5071 10.7012V5.88281H91.0531L90.2217 10.7012H94.5071Z" fill="#F26B52"/>
</g>
<defs>
<clipPath id="clip0_1387_4035">
<rect width="130" height="38" fill="white"/>
</clipPath>
</defs>
</svg>
