<svg width="172" height="50" viewBox="0 0 172 50" fill="none" xmlns="http://www.w3.org/2000/svg">
<g clip-path="url(#clip0_73_6578)">
<path d="M129.1 18.61H125.04V30.2C125.04 30.45 125.06 30.68 125.1 30.88C125.17 31.23 125.31 31.52 125.5 31.74C125.81 32.09 126.32 32.27 127.02 32.27H129.09V36.16C128.75 36.27 128.35 36.38 127.91 36.48C127.46 36.58 126.98 36.66 126.47 36.74C125.96 36.81 125.5 36.84 125.08 36.84C124.68 36.84 124.31 36.82 123.95 36.78C123.05 36.68 122.28 36.44 121.65 36.08C121.1 35.76 120.64 35.36 120.28 34.9C120.07 34.63 119.89 34.34 119.75 34.02C119.35 33.16 119.16 32.21 119.16 31.17V19.96L125.04 14.09H129.1V18.61ZM136.39 13.75C137.56 13.16 138.9 12.76 140.39 12.55C137.69 5.22 130.65 0 122.38 0C114.11 0 107.17 5.15 104.43 12.4C106.14 12.49 107.64 12.78 108.9 13.26C110.52 13.88 111.8 14.83 112.69 16.08C113.59 17.34 114.05 18.91 114.05 20.75V30.87C114.05 30.96 114.05 31.01 114.06 31.04C114.12 31.08 114.17 31.09 114.22 31.09H116.88V36.99L116.18 37.34C115.81 37.52 115.32 37.69 114.62 37.87C113.92 38.05 113.09 38.15 112.14 38.15C111.79 38.15 111.45 38.13 111.12 38.09C116.4 45.08 122.37 50.08 122.37 50.08C122.37 50.08 129.54 44.09 135.11 36.03C133.82 35.12 132.8 33.9 132.07 32.4C131.14 30.51 130.67 28.11 130.67 25.28C130.67 22.45 131.14 20.01 132.07 18.13C133.04 16.18 134.49 14.71 136.38 13.75" fill="#1F2A44"/>
<path d="M12.68 18.72V14.2H8.62V7.85999H4.05L2.95 14.2H0V18.72H2.75V31.28C2.75 32.32 2.95 33.28 3.34 34.13C3.73 34.99 4.37 35.67 5.24 36.18C6.11 36.69 7.25 36.94 8.66 36.94C9.08 36.94 9.55 36.9 10.05 36.84C10.56 36.77 11.03 36.68 11.49 36.58C11.94 36.48 12.34 36.38 12.68 36.26V32.37H10.61C9.9 32.37 9.4 32.19 9.09 31.84C8.78 31.49 8.63 30.97 8.63 30.3V18.71H12.69L12.68 18.72Z" fill="#1F2A44"/>
<path d="M29.1 13.79C28.71 13.7 28.27 13.64 27.79 13.64C26.89 13.64 26.1 13.82 25.42 14.19C24.74 14.56 24.18 15.05 23.73 15.65C23.28 16.26 22.91 16.92 22.63 17.66H22.34L21.88 14.19H17.02V36.43H22.9V25.31C22.9 24.32 23 23.47 23.22 22.73C23.43 22 23.76 21.38 24.21 20.87C24.66 20.36 25.22 19.99 25.88 19.75C26.54 19.51 27.31 19.39 28.18 19.39H30V14.06C29.8 13.98 29.51 13.89 29.11 13.78" fill="#1F2A44"/>
<path d="M39.0499 14.19H33.1699V36.43H39.0499V14.19Z" fill="#1F2A44"/>
<path d="M59.2301 25.82C59.2301 27.2 59.0701 28.36 58.7601 29.31C58.4501 30.26 57.9501 30.96 57.2601 31.43C56.5701 31.89 55.6301 32.13 54.4501 32.13C53.6001 32.13 52.8901 31.98 52.3001 31.69C51.7101 31.39 51.2201 30.96 50.8401 30.4C50.4601 29.84 50.1701 29.15 49.9701 28.35C49.7701 27.55 49.6701 26.65 49.6701 25.67V24.95C49.6701 23.6 49.8401 22.44 50.1801 21.48C50.5201 20.52 51.0401 19.79 51.7401 19.28C52.4501 18.77 53.3501 18.52 54.4501 18.52C55.6301 18.52 56.5701 18.75 57.2601 19.22C57.9501 19.68 58.4501 20.39 58.7601 21.33C59.0701 22.27 59.2301 23.45 59.2301 24.86V25.83V25.82ZM64.1501 18.72C63.4301 17 62.4001 15.74 61.0701 14.92C59.7301 14.1 58.1301 13.7 56.2701 13.7C54.8301 13.7 53.5201 13.98 52.3401 14.54C51.1601 15.11 50.2001 15.99 49.4601 17.21H49.1601L48.6501 14.21H43.8301V43.98H49.7101V34H49.9601C50.4101 34.65 50.9601 35.2 51.6101 35.65C52.2601 36.1 52.9901 36.43 53.8101 36.64C54.6301 36.85 55.5101 36.96 56.4701 36.96C58.2101 36.96 59.7501 36.55 61.0601 35.72C62.3701 34.89 63.3901 33.61 64.1201 31.89C64.8501 30.17 65.2201 28 65.2201 25.38C65.2201 22.76 64.8601 20.46 64.1401 18.74" fill="#1F2A44"/>
<path d="M83.2799 30.39C82.9399 31.07 82.4499 31.58 81.8199 31.91C81.1799 32.25 80.3899 32.42 79.4299 32.42C78.2499 32.42 77.2899 32.18 76.5499 31.68C75.8199 31.19 75.2799 30.45 74.9199 29.46C74.5699 28.47 74.3899 27.26 74.3899 25.82V24.85C74.3899 23.39 74.5599 22.16 74.8999 21.17C75.2399 20.18 75.7599 19.44 76.4599 18.93C77.1599 18.42 78.0799 18.17 79.2099 18.17C80.1699 18.17 80.9699 18.34 81.5999 18.68C82.2299 19.02 82.7099 19.51 83.0199 20.16C83.3299 20.81 83.4799 21.64 83.4799 22.66H89.3599C89.3599 21.14 89.1299 19.82 88.6599 18.71C88.1999 17.6 87.5099 16.66 86.6099 15.9C85.7099 15.14 84.6399 14.58 83.4199 14.21C82.1899 13.85 80.8199 13.66 79.2999 13.66C76.9599 13.66 74.9799 14.08 73.3599 14.93C71.7399 15.78 70.5099 17.05 69.6799 18.76C68.8499 20.47 68.4299 22.66 68.4299 25.33C68.4299 28 68.8499 30.13 69.6799 31.86C70.5099 33.6 71.7299 34.88 73.3399 35.71C74.9499 36.54 76.9299 36.95 79.2999 36.95C80.8199 36.95 82.1999 36.75 83.4399 36.36C84.6799 35.97 85.7399 35.39 86.6299 34.63C87.5199 33.87 88.1899 32.93 88.6599 31.8C89.1199 30.67 89.3599 29.39 89.3599 27.95H83.7799C83.7799 28.91 83.6099 29.73 83.2699 30.4" fill="#1F2A44"/>
<path d="M106.66 27.77C106.66 28.45 106.54 29.08 106.3 29.67C106.24 29.82 106.18 29.96 106.1 30.1C105.89 30.51 105.62 30.87 105.31 31.17C104.89 31.58 104.37 31.9 103.75 32.14C103.13 32.38 102.42 32.5 101.64 32.5C100.96 32.5 100.39 32.4 99.91 32.2C99.43 32 99.06 31.72 98.81 31.35C98.55 30.98 98.43 30.55 98.43 30.04C98.43 29.14 98.79 28.43 99.51 27.93C100.23 27.42 101.21 27.06 102.45 26.85C103.12 26.74 103.85 26.65 104.62 26.6C105.27 26.56 105.96 26.53 106.67 26.53V27.75L106.66 27.77ZM113.98 32.38C113.61 32.38 113.28 32.26 112.98 32.02C112.68 31.78 112.53 31.41 112.53 30.9V20.8C112.53 19.22 112.16 17.91 111.41 16.87C110.66 15.83 109.59 15.04 108.2 14.5C107.56 14.25 106.84 14.06 106.06 13.93C105.41 13.82 104.72 13.75 103.98 13.72C103.67 13.71 103.35 13.7 103.02 13.7C101.1 13.7 99.42 13.95 97.99 14.46C96.55 14.97 95.44 15.69 94.65 16.64C93.86 17.58 93.47 18.7 93.47 20V20.49C93.47 20.61 93.48 20.75 93.51 20.89H99.22V20.38C99.22 19.96 99.34 19.57 99.58 19.22C99.82 18.87 100.23 18.58 100.81 18.35C101.39 18.12 102.14 18.01 103.07 18.01C103.12 18.01 103.18 18.01 103.23 18.01C104.08 18.03 104.76 18.17 105.25 18.43C105.26 18.43 105.27 18.44 105.29 18.45C105.79 18.73 106.15 19.1 106.35 19.57C106.56 20.05 106.67 20.61 106.67 21.26V22.91C106.32 22.91 105.98 22.91 105.64 22.92C104.94 22.93 104.26 22.96 103.6 23C102.65 23.06 101.75 23.14 100.88 23.25C99.13 23.48 97.63 23.88 96.38 24.46C95.13 25.04 94.16 25.83 93.49 26.85C92.81 27.86 92.47 29.15 92.47 30.7C92.47 32 92.7 33.06 93.17 33.89C93.63 34.72 94.23 35.36 94.97 35.79C95.7 36.23 96.48 36.53 97.32 36.7C98.15 36.87 98.93 36.95 99.67 36.95C100.85 36.95 101.9 36.82 102.82 36.57C103.74 36.32 104.54 35.96 105.23 35.51C105.92 35.06 106.51 34.54 106.99 33.94H107.28C107.45 34.56 107.75 35.09 108.17 35.53C108.59 35.97 109.12 36.31 109.76 36.54C110.4 36.78 111.12 36.9 111.94 36.9C112.2 36.9 112.46 36.9 112.7 36.88C112.71 36.88 112.72 36.88 112.73 36.88C112.98 36.86 113.22 36.84 113.44 36.8C113.68 36.76 113.89 36.72 114.1 36.67C114.69 36.51 115.13 36.37 115.41 36.23V32.38H114.02H113.98Z" fill="#1F2A44"/>
<path d="M137.92 22.9C138.06 21.8 138.32 20.89 138.7 20.18C139.08 19.46 139.63 18.92 140.35 18.57C140.7 18.39 141.1 18.27 141.53 18.18C141.98 18.09 142.48 18.04 143.03 18.04C143.68 18.04 144.26 18.13 144.79 18.31C145.31 18.49 145.75 18.78 146.12 19.18C146.49 19.57 146.78 20.08 146.99 20.7C147.2 21.32 147.31 22.05 147.31 22.9H137.92ZM153.35 25.1C153.35 22.45 152.96 20.29 152.17 18.61C151.38 16.93 150.21 15.69 148.66 14.89C147.11 14.09 145.21 13.69 142.95 13.69C142.19 13.69 141.47 13.73 140.79 13.81C139.31 13.99 138.01 14.36 136.88 14.93C136.5 15.12 136.14 15.34 135.8 15.58C135.73 15.63 135.66 15.68 135.59 15.73C135.54 15.77 135.48 15.82 135.43 15.86C135.37 15.9 135.31 15.96 135.25 16.01C134.39 16.74 133.69 17.65 133.15 18.74C132.3 20.45 131.88 22.64 131.88 25.31C131.88 27.3 132.12 29.03 132.6 30.5C132.76 30.98 132.94 31.44 133.15 31.86C134 33.58 135.25 34.86 136.91 35.69C138.57 36.52 140.63 36.93 143.08 36.93C144.6 36.93 145.99 36.76 147.24 36.4C148.49 36.05 149.57 35.53 150.47 34.84C151.37 34.15 152.08 33.28 152.58 32.24C153.09 31.2 153.34 29.97 153.34 28.56H147.59C147.59 29.21 147.48 29.79 147.25 30.3C147.03 30.8 146.72 31.23 146.32 31.57C145.93 31.91 145.45 32.16 144.9 32.33C144.35 32.5 143.74 32.58 143.06 32.58C141.82 32.58 140.83 32.36 140.08 31.93C139.42 31.54 138.92 30.98 138.57 30.23C138.52 30.13 138.48 30.02 138.43 29.92C138.08 29.02 137.88 27.92 137.82 26.62H153.33V25.1H153.35Z" fill="#1F2A44"/>
<path d="M169.76 13.79C169.36 13.7 168.93 13.64 168.45 13.64C167.55 13.64 166.76 13.82 166.08 14.19C165.41 14.56 164.84 15.05 164.39 15.65C163.94 16.26 163.57 16.92 163.29 17.66H163L162.53 14.19H157.67V36.43H163.54V25.31C163.54 24.32 163.65 23.47 163.86 22.73C164.07 22 164.4 21.38 164.85 20.87C165.3 20.36 165.86 19.99 166.52 19.75C167.18 19.51 167.95 19.39 168.82 19.39H170.64V14.06C170.44 13.98 170.15 13.89 169.75 13.78" fill="#1F2A44"/>
<path d="M39.0499 5.87H33.1699V10.94H39.0499V5.87Z" fill="#F26B52"/>
<path d="M125.04 14.08V7.73999H120.47L119.37 14.08H125.04Z" fill="#F26B52"/>
</g>
<defs>
<clipPath id="clip0_73_6578">
<rect width="172" height="50" fill="white"/>
</clipPath>
</defs>
</svg>
